<svg xmlns="http://www.w3.org/2000/svg" viewBox="0 0 250.77 176.67"><defs><style>.cls-1{fill:#005fa8;}.cls-2{fill:#0b6eb6;}.cls-3{fill:#baa7c3;}.cls-4{fill:#e21e24;}.cls-5{fill:#223979;}.cls-6{fill:#0087ce;}.cls-7{fill:#008ad0;}.cls-8{fill:#007ec5;}.cls-9{fill:#006fb7;}.cls-10{fill:#233979;}.cls-11{fill:#0174bb;}.cls-12{fill:#0168b0;}.cls-13{fill:#007bc2;}.cls-14{fill:#0077bf;}.cls-15{fill:#0085cb;}.cls-16{fill:#0086cd;}.cls-17{fill:#0089cf;}.cls-18{fill:#0078bf;}.cls-19{fill:#007dc5;}.cls-20{fill:#0078c0;}.cls-21{fill:#006ab2;}.cls-22{fill:#0069b2;}.cls-23{fill:#007dc4;}.cls-24{fill:#0076be;}.cls-25{fill:#0070b8;}.cls-26{fill:#0076bd;}.cls-27{fill:#0066af;}.cls-28{fill:#0082c9;}.cls-29{fill:#253978;}.cls-30{fill:#0079c1;}.cls-31{fill:#0081c8;}.cls-32{fill:#006db5;}.cls-33{fill:#273b7b;}.cls-34{fill:#0079c0;}.cls-35{fill:#263977;}.cls-36{fill:#0072b9;}.cls-37{fill:#3d4d84;}.cls-38{fill:#fff;}.cls-39{fill:#263877;}.cls-40{fill:#293876;}.cls-41{fill:#ac253b;}.cls-42{fill:#692e59;}.cls-43{fill:#822e58;}.cls-44{fill:#5c2f59;}.cls-45{fill:#703163;}.cls-46{fill:#9a3655;}.cls-47{fill:#007fc6;}.cls-48{fill:#0088cf;}.cls-49{fill:#e21e25;}</style></defs><g id="Layer_2" data-name="Layer 2"><g id="Layer_1-2" data-name="Layer 1"><path class="cls-1" d="M236,3.85a16.85,16.85,0,0,1,9.16,12.8,16.17,16.17,0,0,1-1.67,10.72c-.41.75-1.42,1.39-1.18,2.18s1.16,1.06,1.79,1.57a13.77,13.77,0,0,1,4.71,8.65,19.5,19.5,0,0,1-1.35,11.67,17.48,17.48,0,0,1-3.17,4.6c-.75.81-.75.82-.06,1.61a25.41,25.41,0,0,1,6.28,13.47,13.9,13.9,0,0,1-1.38,9.21,11.89,11.89,0,0,1-5,4.39,27.34,27.34,0,0,1-7.6,3c-.74.15-.82.52-.7,1.22A103.62,103.62,0,0,1,237.18,109a31.8,31.8,0,0,1-.7,6,12.66,12.66,0,0,1-5.71,8.3,18.33,18.33,0,0,1-14.91,2.19,14.31,14.31,0,0,1-3.77-1.37c-.46-.27-.67-.1-.9.3-2.73,4.76-7,7.22-12.3,8a10.12,10.12,0,0,1-3,0,1.36,1.36,0,0,0-1.45.56c-4.66,5.78-10.77,7.85-18,6.92a15.21,15.21,0,0,1-4.31-1.06c-.73-.33-1.09-.22-1.43.51a12.86,12.86,0,0,1-2.73,3.85,11.87,11.87,0,0,1-10.41,3.35c-1.13-.17-2.25-.44-3.37-.71a1,1,0,0,0-1.29.51,17.17,17.17,0,0,1-13.48,8.43,2,2,0,0,0-1.79,1,31.59,31.59,0,0,1-8.65,9.69,54.76,54.76,0,0,1-15.54,8.86,37.35,37.35,0,0,1-24,.86,30.39,30.39,0,0,1-11.49-6.63,41,41,0,0,1-13.8-26.24,34.41,34.41,0,0,1,0-9.18,1.34,1.34,0,0,0,0-.84c-.32-.08-.54.14-.78.27-6.75,3.67-13.94,4.54-21.46,3.42A37.28,37.28,0,0,1,26,129.83c-6-4.09-10.52-9.41-12.56-16.47-1.67-5.77-1.22-11.39,2.27-16.52.58-.85.58-.87-.4-1.46A29.46,29.46,0,0,1,8,89.64,31.05,31.05,0,0,1,.11,66.05,40.49,40.49,0,0,1,2.89,53.47c1.75-4.15,3.55-8.28,6.71-11.64,6.32-6.73,13.83-11.16,23.17-12.06A43.55,43.55,0,0,1,50,31.19c4.82,1.5,9.1,3.81,12.09,8.06a.75.75,0,0,0,1.06.32,11.72,11.72,0,0,1,7-.63c.7.16.94-.25,1.26-.67a22.19,22.19,0,0,1,12.21-7.9,22.77,22.77,0,0,1,16.08,1.81,26.64,26.64,0,0,1,4.84,3c.56-.92,1.07-1.78,1.59-2.62a36,36,0,0,1,12.28-12.09,15,15,0,0,1,11-2.18,1.63,1.63,0,0,0,1.44-.42,15.8,15.8,0,0,1,19.54.7,31.52,31.52,0,0,1,3.44,3.74,8.45,8.45,0,0,0,1.53-1.7A45,45,0,0,1,166.25,11a23.9,23.9,0,0,1,15.92-3.68,20.14,20.14,0,0,1,10.68,4.9,6.15,6.15,0,0,1,.53.49c.48.57.83.4,1.23-.13a28.35,28.35,0,0,1,5.09-5.06c6.9-5.59,14.72-8.23,23.63-7.36a.3.3,0,0,1-.09.41c-1.85.43-3.75.4-5.61.77a31.73,31.73,0,0,0-7.56,2.41,33.67,33.67,0,0,0-4.22,2.39,30.18,30.18,0,0,0-5.93,5.3c2.13-2,4.82-3.21,7.34-4.62A30,30,0,0,1,218,3.55c.56-.08,1.13-.14,1.69-.27,5.27-.27,10.21.79,14.45,4.05a19.71,19.71,0,0,1,6.94,10.3c.71,2.4,0,4.84-.34,7.24a32.72,32.72,0,0,1-.86,3.48c-.13.44-.33,1.2.25,1.41s1-.31,1.25-.9a11.28,11.28,0,0,0,1.18-3.06,15,15,0,0,0,1-9.94,19.88,19.88,0,0,0-6.73-10.09c-.37-.31-.76-.58-1.1-.92a2.91,2.91,0,0,1-.3-.31l-.14-.16a2.22,2.22,0,0,1-.21-.37,1.18,1.18,0,0,1,0-.2c.06-.23.16-.39.43-.25a.26.26,0,0,1,.26.1A1.69,1.69,0,0,0,236,3.85Z"/><path class="cls-2" d="M235.46,3.56l-.34.33c-.49.35-.9.07-1.32-.15a22,22,0,0,0-9.26-2.65c-.47,0-1.12.13-1.21-.65V.16A26.37,26.37,0,0,1,235.46,3.56Z"/><path class="cls-3" d="M182,167s-.08.05-.11,0-.14-.09,0-.15.09,0,.12,0S181.94,166.92,182,167Z"/><path class="cls-2" d="M236,3.85a.31.31,0,0,1-.32-.19A.26.26,0,0,1,236,3.85Z"/><path class="cls-4" d="M112,37.28c.85-1.38,1.52-2.86,2.45-4.2a17.69,17.69,0,0,1,9.23-7.16,17.35,17.35,0,0,1,9.07-.29,2,2,0,0,0,2.34-.79,10.44,10.44,0,0,1,7-3.89c1.31-.16,2.56.27,3.86.2,1.6-.18,2.55.93,3.59,1.84a6.79,6.79,0,0,1,1.12,1.44,2.27,2.27,0,0,1,.43,1.33l2.36,6.31a1.58,1.58,0,0,1,.54,1,.7.7,0,0,1,0,.25.2.2,0,0,0,.12-.21,18.33,18.33,0,0,1,2.81-6.16,39.77,39.77,0,0,1,4.57-6.08,26,26,0,0,1,13.58-7.6,23.75,23.75,0,0,1,14.61,1.63,12.21,12.21,0,0,1,6.72,6.56,4.29,4.29,0,0,0,.29.5,3.63,3.63,0,0,0,.83-1.34c2.82-4.88,6.48-8.95,11.61-11.42a33.84,33.84,0,0,1,15.12-3.52,17.9,17.9,0,0,1,8.41,2.17,12.45,12.45,0,0,1,6.75,10.37,17.18,17.18,0,0,1-2.86,11.89,5.49,5.49,0,0,1-7.69,2.35,11.17,11.17,0,0,1-4.12-3.72c-1.6-2.47-3.57-1.78-4.55.63a11.33,11.33,0,0,0-.69,6.07c.44,2.73,2.33,3.88,5,3.18a36.66,36.66,0,0,0,7.13-3,10.88,10.88,0,0,1,4.53-1.28,3.68,3.68,0,0,1,2.44.62,9.16,9.16,0,0,1,5.09,5.55c.08.22.21.42.31.63a2.14,2.14,0,0,1,.69,1.65,14.59,14.59,0,0,1-1.47,8.54c-2.66,4.38-6.75,6.65-11.56,7.88a40.29,40.29,0,0,1-6.33,1.26c-1.1.09-1.48.51-1.2,1.67.38,1.54.74,3.07,1.2,4.58.14.46.21,1,.9.82a84.87,84.87,0,0,1,10.92-2.45c1.08-.19,2.19-.23,3.27-.43a2.91,2.91,0,0,1,3.16,1.46,12.74,12.74,0,0,1,2.17,6.32,9.34,9.34,0,0,1-6.7,10.14l-1.35.5c-.25.22-.62,0-.88.24h0a20.26,20.26,0,0,1-5.37,1.24c-.88.14-1.33.46-1,1.4.44,2.65.87,5.29,1.31,7.93a86,86,0,0,1,1,18.34,20.86,20.86,0,0,1-.57,3.68,8.17,8.17,0,0,1-2.57,4.23c-3.65,3-7.85,3.54-12.32,2.63a2.49,2.49,0,0,1-2.14-2.67c-.36-6.31-.52-12.63-1.18-18.91a69.69,69.69,0,0,0-1.18-8.39c-.2-.89-.51-1.32-1.44-.71a17.75,17.75,0,0,1-10,3c-1,0-.73.67-.67,1.2a44.21,44.21,0,0,0,2.15,8.93c1.14,3.31,2.65,6.37,5.43,8.66a2,2,0,0,1,.94,2c0,1.06.28,2.08.24,3.15a10,10,0,0,1-2.2,5.51c-3.53,4.27-8.07,4.79-13,3.39a1.94,1.94,0,0,0-2.52.83,15.76,15.76,0,0,1-7.15,6,15.45,15.45,0,0,1-14.69-1.33c-1.07-.69-1.12-.74-1.35.64a12.72,12.72,0,0,1-5.72,8.93,7.36,7.36,0,0,1-10.68-2.1,7.15,7.15,0,0,1-1-3.69c-.17-2.24-.34-4.49-.39-6.74a30.16,30.16,0,0,0-3.25-12.72c-.3-.6-.61-1.67-1.34-1.43s-.34,1.27-.26,2c.69,5.61,2.43,10.94,4.2,16.27a34.39,34.39,0,0,1,1.13,3.57c1,4.73.1,7.58-4.39,10.3a10.93,10.93,0,0,1-8.86,1.35c-1.63-.45-1.61-.38-2.22,1.25a18.69,18.69,0,0,1-6.47,8.26,42,42,0,0,1-21.68,8.48,52.5,52.5,0,0,1-12.59,0c-8.83-1.21-15.19-5.89-19.49-13.61a39,39,0,0,1-4.92-18.41,65.25,65.25,0,0,1,.52-6.7,53.71,53.71,0,0,1,2.08-9.47c.23-.34,0-.8.31-1.11l.06-.1-.08.1a1.39,1.39,0,0,1-.62.48,26.05,26.05,0,0,1-9.75,6.84c-.22.09-.42.22-.63.33a30.46,30.46,0,0,1-20.25,2.28,27.13,27.13,0,0,1-11.78-5C26.22,120,22.87,116,21.2,110.81a10.16,10.16,0,0,1-.49-5.35c.05-.24.1-.47.13-.71.46-4,3.3-5.51,6.24-6.19a9.62,9.62,0,0,1,5.76.6,41.54,41.54,0,0,0,7,2.12,8.33,8.33,0,0,0,1.86.19,13.37,13.37,0,0,0,2.67-.34c.45-.1,1.06,0,1.2-.62s-.46-.89-.87-1.19a22,22,0,0,0-4.2-2.18C34,94.36,27.57,91.55,21.26,88.41c-5.48-2.73-10-6.61-12.68-12.26-1.42-3-2.49-6.11-1.92-9.52h0c.34-1.23-.05-2.51.23-3.75C9.1,50.27,16.4,41.74,28,36.71A26.41,26.41,0,0,1,48,36.21,20.29,20.29,0,0,1,61,50.14c.11.37.22.73.35,1.19,1-.81,1.85-1.59,2.77-2.33A11.1,11.1,0,0,1,69,46.63a8.42,8.42,0,0,1,7,1.81c.19.15.35.32.53.48l.42.36c.4-.16.41-.53.54-.82,2.68-6,7.43-9.39,13.75-10.59,5.48-1,10,.89,13.59,5.05.81.94,1.54,1.95,2.31,2.94.61.24.82.9,1.46,1.43.7-3.33,1.33-6.58,3.11-9.42h0C111.83,37.69,111.78,37.41,112,37.28Z"/><path class="cls-5" d="M71.05,129.07c0,.76,0,1.53-.07,2.29a42.27,42.27,0,0,0,1,12.84,35.59,35.59,0,0,0,7.5,15A23.5,23.5,0,0,0,92.73,167a43.85,43.85,0,0,0,14,.44,53,53,0,0,0,9.84-1.93A40.31,40.31,0,0,0,130.19,158a18.76,18.76,0,0,0,4.14-4.92,10.44,10.44,0,0,0,1.29-3.19c.2-.92.3-1,1.29-.74.37.08.75.17,1.11.27a11.64,11.64,0,0,0,11.63-3.87,7.55,7.55,0,0,0,1.28-6.66c-.49-2.4-1.5-4.65-2.22-7a93,93,0,0,1-2.93-11.25,19.58,19.58,0,0,1-.39-3.42,4.13,4.13,0,0,1,.36-1.83,3.3,3.3,0,0,1,1.81,1.82,24.86,24.86,0,0,1,2.35,6,32.84,32.84,0,0,1,1.23,8.93,46.29,46.29,0,0,0,.48,6.44,4.68,4.68,0,0,0,1,2.36c2.75,3.39,5.92,4.23,9.86,1.8a11.92,11.92,0,0,0,5.62-8.47c.12-.71.24-1.42.37-2.12,0,0,.06-.06.09-.09a.33.33,0,0,1,.39.1c3.1,2.88,6.86,3.56,10.93,3.31,5-.3,8.58-2.93,11.44-6.8.42-.57.65-1.4,1.35-1.61s1.24.43,1.88.59c4.51,1.15,8.64.6,12.15-2.71a6,6,0,0,1,.56-.44,7,7,0,0,1-2.44,2.75A15.33,15.33,0,0,1,195,130.8a8.9,8.9,0,0,1-2.66-.51c-1.16-.35-1.1-.3-1.88.57-3.27,3.62-7.15,6.22-12.1,6.8a13.65,13.65,0,0,1-7-1c-1.08-.46-1.1-.45-1.48.68a11.38,11.38,0,0,1-7.73,7.61,9.12,9.12,0,0,1-7.35-.59c-.21-.11-.44-.19-.64-.32-.59-.38-.92-.17-1.25.4A12.84,12.84,0,0,1,142,151.24a21.14,21.14,0,0,1-4.28-.34.92.92,0,0,0-1.2.64,27.12,27.12,0,0,1-3.77,5.9,34,34,0,0,1-3.39,3.5,46.18,46.18,0,0,1-6.87,5.16,42.78,42.78,0,0,1-12.75,5,36.2,36.2,0,0,1-11.26.77,28.39,28.39,0,0,1-14.75-5.42,33.52,33.52,0,0,1-8.54-9.56,32.61,32.61,0,0,1-4-10.69c-.37-1.81-.57-3.66-.76-5.52a28.39,28.39,0,0,1-.2-5.29A29.48,29.48,0,0,1,71.05,129.07Z"/><path class="cls-5" d="M209.19,115.85c-.34-.51-.48-1.14-1-1.54-3.23-2.5-4.74-6-6-9.75a51.39,51.39,0,0,1-2.08-9.09c-.08-.55,0-1,.69-.89,4,.42,7.42-1,10.69-3a3,3,0,0,1,1.22-.62,20.25,20.25,0,0,1,1.09,5c.55,4.7,1,9.41,1.26,14.15.17,3.3.29,6.6.47,9.9.08,1.6.59,2.22,2.14,2.52a16.12,16.12,0,0,0,11.46-2.13c.16-.09.34-.15.51-.23a9.07,9.07,0,0,1-3.87,3.28A14,14,0,0,1,219.6,125c-3.76,0-5.32-2-5.82-4.9a23,23,0,0,1-.24-3.7,20.11,20.11,0,0,0-.54-4.09c-.06-.31,0-.73-.46-.77s-.55.3-.76.56a23.57,23.57,0,0,0-1.86,2.88C209.73,115.34,209.59,115.71,209.19,115.85Z"/><path class="cls-5" d="M6.66,66.63a43,43,0,0,0,.89,5.94,24.55,24.55,0,0,0,9.68,13,41.29,41.29,0,0,0,8.44,4.58c4.11,1.71,8,3.78,12.17,5.47,1.82.74,3.61,1.55,5.4,2.35a8.42,8.42,0,0,1,2.68,1.89c.63.66.56,1.13-.3,1.37a6.33,6.33,0,0,1-3.92.24c.35-.37,0-.49-.25-.59a53.82,53.82,0,0,0-7.83-3.2,59.71,59.71,0,0,1-13.1-5A39.25,39.25,0,0,1,13,87.49a16.56,16.56,0,0,1-3.42-4.4A27.18,27.18,0,0,1,6,72.89a20.78,20.78,0,0,1,.39-5.8A.64.64,0,0,1,6.66,66.63Z"/><path class="cls-5" d="M20.71,105.46c.18,5.48,2.52,10,6.06,14.05,4,4.55,9,7,14.84,8.4a33.88,33.88,0,0,0,19.45-1.35,3.84,3.84,0,0,1,1.36-.42,27.53,27.53,0,0,1-7.06,4.28,26.34,26.34,0,0,1-12.73,2.07,23.85,23.85,0,0,1-7.72-2,27.67,27.67,0,0,1-8.18-5.47,20.47,20.47,0,0,1-5.33-8.21,23,23,0,0,1-1.51-7.54A9.73,9.73,0,0,1,20.71,105.46Z"/><path class="cls-5" d="M238.6,34.92a9.58,9.58,0,0,0-6.93,1,41.33,41.33,0,0,1-5.74,2.63,11.34,11.34,0,0,1-1.51.44c-2.94.65-4.94-.65-5.35-3.62a12.79,12.79,0,0,1,.73-6.21,4.66,4.66,0,0,1,1.08-1.68,2.21,2.21,0,0,1,3.5.14c.37.43.69.91,1,1.38a10.54,10.54,0,0,0,3.69,3.14,5,5,0,0,0,5.77-.52,20.43,20.43,0,0,0,1.67-1.56A6.46,6.46,0,0,0,238.6,34.92Z"/><path class="cls-6" d="M5.77,51.94a9.55,9.55,0,0,1,1.61-3.18,46.26,46.26,0,0,1,3.4-4.6,34.47,34.47,0,0,1,8.38-6.86,34.78,34.78,0,0,1,12.4-4.66c1.5-.27,3-.65,4.47-.91a19.78,19.78,0,0,1,5.85,0c1.41.18,2.83.35,4.23.63,1.66.33,3,1.37,4.89,1.55-.52.73-.94.85-1.58.64a25.93,25.93,0,0,0-10.5-.92,51.7,51.7,0,0,0-10.8,2,15.68,15.68,0,0,0-2.28.86,47,47,0,0,0-6,3.09c-.14.18-.42.11-.56.29h0c-.16.16-.43.11-.58.29h0c-.42.24-.76.59-1.16.86h0A30.58,30.58,0,0,0,6.85,52.5a21.38,21.38,0,0,1-1.16,1.81c-.23.34-.49.85-1,.53s-.07-.69.08-1A15,15,0,0,1,5.77,51.94Z"/><path class="cls-7" d="M108.79,30.93A20.74,20.74,0,0,1,114,25.17,25.41,25.41,0,0,1,119.44,22c.43-.2.88-.35,1.33-.51a24.49,24.49,0,0,1,8-1.07,2.86,2.86,0,0,0,1.87-.59,12.13,12.13,0,0,1,10.14-2.23c.47.1,1.07.16,1,.75s-.68.55-1.13.57a15.8,15.8,0,0,0-3.82.4,7.9,7.9,0,0,0-4.43,1.82c-1.65,1.46-3.64,1.44-5.58,1.7a6,6,0,0,0-1.4.25,23.07,23.07,0,0,0-9.85,4,18.58,18.58,0,0,0-4.4,4,4.69,4.69,0,0,1-2.38,1.53c-.8.26-.93-.17-.63-.84h0c.17-.15.12-.42.29-.57h0Z"/><path class="cls-8" d="M5.77,51.94c-.09,1-1,1.7-.82,2.81a25.59,25.59,0,0,0,1.54-2.3A29.47,29.47,0,0,1,10,47.16a19.19,19.19,0,0,1,5.45-5c.71-.37,1.18-1.14,2.08-1.17a6.29,6.29,0,0,1-1.73,1.72A31.13,31.13,0,0,0,6.61,54.38c-.94,2.18-1.37,4.56-2.12,6.82a4.46,4.46,0,0,1-.6,1.29c-.61,1.73-.25,3.5-.25,5.25,0,3.14-.08,6.27,0,9.41,0,.15-.12.25-.39.57-2-4.3-1.78-8.71-1.51-13.12A7.84,7.84,0,0,1,2,62.35a47,47,0,0,1,2.3-7.87A5.6,5.6,0,0,1,5.77,51.94Z"/><path class="cls-9" d="M3.76,62a31.88,31.88,0,0,0,1.79-5.67,21.37,21.37,0,0,1,2.38-5.18,21,21,0,0,1,4.7-5.9,12.77,12.77,0,0,1,3.21-2.54,10.59,10.59,0,0,1-1.85,2,51.16,51.16,0,0,0-4.5,5.16,20.45,20.45,0,0,0-2.6,5.23C6,57.23,5.46,59.45,4.8,61.63a28.19,28.19,0,0,0-.42,3.68,29.28,29.28,0,0,0,1,13.11,12,12,0,0,0,.65,1.73,67.71,67.71,0,0,0,4.58,8.3c.19.26.52.59.24.88s-.68,0-.93-.28a18,18,0,0,1-2.16-2.29c-.17-.39-.62-.65-.58-1.15A5.84,5.84,0,0,0,6.1,83.47a18.15,18.15,0,0,1-2.46-8.53c-.23-3.66.06-7.31-.16-11A3.64,3.64,0,0,1,3.76,62Z"/><path class="cls-10" d="M226.23,67.5c-.67.56-.89.07-1.09-.47a29.93,29.93,0,0,1-1.67-6.61,27.33,27.33,0,0,1,4-.67,44.06,44.06,0,0,0,8.12-2.33,15,15,0,0,0,6.52-5.24c.22-.3.35-.68.71-.88.35,1.61-.59,2.59-1.69,3.5a32.43,32.43,0,0,1-10.73,6.07,29.61,29.61,0,0,0-3.85,1.52c-1.52.82-1.73,1.17-1.27,2.83C225.53,66,225.33,67,226.23,67.5Z"/><path class="cls-9" d="M242.89,25.76c.05,1.47-1,2.55-1.43,3.83-.13.35-.57.51-.93.64-.74.28-1,.06-1.1-.74-.22-1.26.41-2.34.69-3.47a42.75,42.75,0,0,0,.86-5.48,9.47,9.47,0,0,0-1.2-5.45,22.57,22.57,0,0,0-4.94-6.73,15.28,15.28,0,0,0-5.08-3.09A48.24,48.24,0,0,0,224,3.71a25.27,25.27,0,0,0-4.44-.11.34.34,0,0,1,.09-.44c2.08-.91,4.2-.55,6.31-.17,1.93.67,4,.94,5.83,1.93a18.49,18.49,0,0,1,6.94,6c1.24,1.88,2.64,3.62,3.07,5.92.71,3.69,0,7.23-.94,10.76-.1.37-.51.71-.17,1.14,0,0,.09,0,.13,0l.12-.08.22-.27c.1-.14.19-.27.28-.42s.1-.18.15-.27a3.84,3.84,0,0,0,.21-.4l.12-.27a3.06,3.06,0,0,0,.13-.43,2.47,2.47,0,0,1,.1-.29,2.1,2.1,0,0,1,.22-.42.8.8,0,0,1,.23-.22A.22.22,0,0,1,242.89,25.76Z"/><path class="cls-11" d="M125.48,22.88a15,15,0,0,1,3.19-.55,5.77,5.77,0,0,0,2.82-1,11.25,11.25,0,0,1,5.22-2.16c3.16-.28,6.37-1,9.36.82a14.61,14.61,0,0,0-7.19-2.41,2.83,2.83,0,0,1-1.63-.4c.64-.85,1.58-.62,2.4-.55a17.86,17.86,0,0,1,10,4,26.55,26.55,0,0,1,2.9,2.91c.41.45,1,.94.41,1.57a1.41,1.41,0,0,1-2.07,0c-.18-.15-.27-.39-.5-.5a8.43,8.43,0,0,0-4.5-3.48,14.26,14.26,0,0,0-9.06-1.51A8.37,8.37,0,0,0,132,22a3.61,3.61,0,0,1-2.22.83,20.34,20.34,0,0,0-4.88.82,5,5,0,0,1-1.7.07C123.74,22.91,124.8,23.39,125.48,22.88Z"/><path class="cls-12" d="M241.16,54.8c.46-.81.94-1.62,1.39-2.44a1.55,1.55,0,0,0,.3-1.06,14.82,14.82,0,0,0,1.53-7.8c-.08-.8-.25-1.6-.38-2.4a19.37,19.37,0,0,1-.17-4.81c0-.28-.1-.59.29-.68s.47.23.62.47a13.92,13.92,0,0,1,1.94,5.27,31.25,31.25,0,0,1,.53,5.94c0,.42.11.87-.29,1.2a.63.63,0,0,1-.24-.34,22.55,22.55,0,0,0-.74-5.19A19.35,19.35,0,0,1,243,53.68l-.2.37a2.53,2.53,0,0,1-.38.58c-.74.79-.36,1.27.44,1.63a1.48,1.48,0,0,1-.9.83.76.76,0,0,1-1-.91A4.64,4.64,0,0,0,241.16,54.8Z"/><path class="cls-13" d="M83.76,33.24a2.41,2.41,0,0,1,1.59-.52,26.55,26.55,0,0,1,10.9.48A28.6,28.6,0,0,1,102,35.79c.67.37,1.3.79,1.94,1.2s.91.77.66,1.41a1.62,1.62,0,0,1-1.83.72c-.58-.24-1.12-.54-1.68-.82a15.71,15.71,0,0,0-5.62-2c-1-.09-1.92-.55-2.9-.74A19,19,0,0,0,81.24,37a2.33,2.33,0,0,1-.94.32l-.09-.13V37a1.17,1.17,0,0,1,.15-.27l.24-.18.4-.2.27-.12.42-.12L82,36l.26-.12.25-.12.13-.07c.08,0,.17-.08.25-.12l.26-.13.13-.06.28-.08a3.52,3.52,0,0,0,.42-.15,1.42,1.42,0,0,1,.29-.1c.15,0,.31-.07.47-.11s.44-.14.67-.21l.37-.08a6.45,6.45,0,0,0,1.38-.25,15.07,15.07,0,0,1,5.27.31c2.38.54,4.8.84,7.24,1.37-1-1.84-8.16-3.25-10.89-2.73a29.87,29.87,0,0,0-3.53.22A1.49,1.49,0,0,1,83.76,33.24Z"/><path class="cls-14" d="M242.89,25.76h-.28c-.43-.64,0-1.2.15-1.78.82-3.32,1.11-6.61-.54-9.8a30.12,30.12,0,0,0-7-9A11.38,11.38,0,0,0,232,3.56a23.66,23.66,0,0,0-13.52-2c-2.42.27-4.63,1.27-6.95,1.93a3.58,3.58,0,0,1-1.36.33.71.71,0,0,1-.4-.23,6.49,6.49,0,0,1,2.67-1.28A31,31,0,0,1,223.32.44c.24.3.58.27.92.28a20.79,20.79,0,0,1,9.95,2.84,1.93,1.93,0,0,0,.93.33h0a3.83,3.83,0,0,0,.29.28h0c.09.11.2.19.29.29a22.5,22.5,0,0,1,5.66,5.77,16.11,16.11,0,0,1,3,10.48A13.8,13.8,0,0,1,242.89,25.76Z"/><path class="cls-15" d="M20.15,123a22.36,22.36,0,0,1-5.44-10.56,16.83,16.83,0,0,1,1-10.52,9.46,9.46,0,0,1,1.53-2.24c1.4-.47,1.08.41.84,1.12-.65,1.93-1.39,3.83-2,5.78-.43,4.69.06,9.19,2.86,13.18a14.88,14.88,0,0,1,1.35,2.52C20.46,122.55,20.76,122.94,20.15,123Z"/><path class="cls-16" d="M164.91,14a19.79,19.79,0,0,1,6.9-3.44,28.05,28.05,0,0,1,9-.86c.46,0,1.09-.08,1.12.57s-.54.86-1.08.92c-1.37.17-2.75.06-4.12.29a19.88,19.88,0,0,1-2.54.35,2.33,2.33,0,0,0-.46.08c-.21.06-.43.08-.64.14l-.39.17a21.46,21.46,0,0,0-4.9,1.84,20,20,0,0,0-2.63,1.39h0c-.45.34-1,.5-1.44.86-.16.17-.43.11-.58.29h0c-.28.21-.59.35-.86.58h0c-.29.18-.65.31-.82-.05s.28-.59.53-.82h0a2.54,2.54,0,0,0,.28-.29h0a4.11,4.11,0,0,0,.3-.29h0a3.83,3.83,0,0,0,.29-.28h0c.27-.22.59-.36.85-.58h0C164.17,14.57,164.51,14.23,164.91,14Z"/><path class="cls-17" d="M83.76,33.24A42.6,42.6,0,0,1,88.94,33c.69.14,1.4,0,2.09.14.42.06,1-.07.93.58s-.51.74-1,.73c-.72,0-1.44,0-2.15,0a7,7,0,0,0-2.41.31,2.85,2.85,0,0,1-.66.12,2.27,2.27,0,0,0-1,.19c-.22.11-.5.06-.7.25h0a.56.56,0,0,1-.43.14.57.57,0,0,0-.43.15h0a.61.61,0,0,1-.29.14.48.48,0,0,0-.28.15h0a.55.55,0,0,1-.29.13.89.89,0,0,0-.58.22c-.18.09-.42,0-.57.22h0c-.16.17-.43.12-.58.29L80.3,37h0a12.16,12.16,0,0,0-5.24,2c-.25.19-.75.37-.8-.29h0c.11-.09.18-.2.29-.29a17.69,17.69,0,0,1,8.34-4.9c.24-.25.64,0,.87-.28Z"/><path class="cls-18" d="M76.57,39.86a9.45,9.45,0,0,1-1.45,1.58c-.25.29-.54.55-.76.85-.34.45-.38,1.19-1.06,1.26A4.73,4.73,0,0,1,71,43.42a11.43,11.43,0,0,0-7-.49,2.22,2.22,0,0,1-1.51-.08,10,10,0,0,1,3.89-1.8,9,9,0,0,1,4.81-.11c.58.17.85-.34,1.27-.51A4.75,4.75,0,0,0,75.41,40C75.78,39.89,76.11,39.51,76.57,39.86Z"/><path class="cls-19" d="M173.54,11.66c.37-.46.89-.23,1.34-.32a23.33,23.33,0,0,1,5.53-.55,5.42,5.42,0,0,0,.57,0c.34,0,.75-.1.74-.5s-.49-.35-.8-.35a37.44,37.44,0,0,0-8.39.54,4.29,4.29,0,0,1-.72,0,11.48,11.48,0,0,1,5.07-1.13c1.76-.12,3.53,0,5.29,0,1.58.67,3.38.53,4.93,1.35a3.84,3.84,0,0,1,.89.43c.37.33,1.07.49.77,1.18a1.32,1.32,0,0,1-1.57.73c-1-.22-2-.54-3.05-.75a27.73,27.73,0,0,0-8.81-.39A2.11,2.11,0,0,1,173.54,11.66Z"/><path class="cls-20" d="M3.76,62c0,3.24.06,6.49,0,9.74a32.77,32.77,0,0,0,.39,5A16.21,16.21,0,0,0,6.22,83c.37.6.7,1.23,1,1.85.14.26.26.52-.06.74h0a1.92,1.92,0,0,0-.29-.28A30.39,30.39,0,0,1,2.7,77.4a20.86,20.86,0,0,1-1.26-7.72c.09-1.28,0-2.58,0-3.87,0-.42-.11-.88.28-1.21,0,1.72,0,3.44,0,5.16A24,24,0,0,0,3.08,77c0,.11.16.19.23.28,0-1.7-.22-3.39-.1-5.06.21-2.81-.08-5.6,0-8.39A2.09,2.09,0,0,1,3.76,62Z"/><path class="cls-21" d="M150.43,24.63a2.9,2.9,0,0,0,1.87.55c.73-.15.94-.54.44-1.06A12.75,12.75,0,0,1,151.07,22c-.1-.16-.22-.36-.37-.41-1.82-.6-3-2.11-4.65-3a13.86,13.86,0,0,0-4.46-1.37,11.72,11.72,0,0,0-3.4-.37c-.33,0-.67,0-.91.29-1.41.76-3.08.8-4.47,1.68-.63.39-1.31.73-2,1.09a3.6,3.6,0,0,1-3.63.11c.37-.44.88-.27,1.34-.28a3.38,3.38,0,0,0,1.9-.55A15.34,15.34,0,0,1,135.22,17c1.1-.3,2.22-.52,3.34-.71a7.51,7.51,0,0,1,2.83.23,17.35,17.35,0,0,1,6,2.06,37.28,37.28,0,0,1,3.84,2.92,16.49,16.49,0,0,1,2.53,3.08c.46.65.2,1.2-.59,1.38a2.92,2.92,0,0,1-2.09-.21A2.37,2.37,0,0,1,150.43,24.63Z"/><path class="cls-8" d="M127.21,20c.66,0,1.33,0,2,0a3.3,3.3,0,0,0,1.76-.45c1-.52,2-1,3-1.53a15.58,15.58,0,0,1,3.27-.91A33.09,33.09,0,0,1,144,18.31a9.89,9.89,0,0,1,3.54,2.36,2.62,2.62,0,0,1-2-.5,8.08,8.08,0,0,0-4.52-1h-4.31a8.91,8.91,0,0,1,3-.58h1.8c.14-.33,0-.49-.19-.49-1.84,0-3.64-.66-5.53-.16a14.16,14.16,0,0,0-4.77,2.17,3.34,3.34,0,0,1-2.1.77,24.59,24.59,0,0,0-7.78.86,2.24,2.24,0,0,1-.58,0c-.1-.06-.13-.13-.1-.19s.07-.1.1-.1h0c.24-.25.63,0,.87-.29h0c.33-.3.82,0,1.15-.28h0a22.76,22.76,0,0,0,2.3-.58h.29c.43-.34,1,.06,1.44-.29Z"/><path class="cls-22" d="M17.57,103.74a3.6,3.6,0,0,1-.49,2.07,3.82,3.82,0,0,0-.31,2.66,17,17,0,0,1,.23,2.84,17,17,0,0,0,1.12,4.13,19,19,0,0,0,2.94,5.21c.49.7.84,1.51,1.38,2.17A58.26,58.26,0,0,1,26,128c.24.36.68.51,1,1.24a18.21,18.21,0,0,1-5.1-3.87.54.54,0,0,1,.26-.16c.11,0,.17,0,.17-.12s0-.11-.08-.11l-.19-.26-.11-.14a2.23,2.23,0,0,1-.2-.3,1.5,1.5,0,0,1-.16-.34c-.85-2.54-2.55-4.6-3.9-6.86a1.56,1.56,0,0,1-.15-.41c-.34-1.77-1.11-3.41-1.28-5.22-.15-1.61-.15-3.2-.14-4.8l.06-.43a4.17,4.17,0,0,0,.28-.77,1.74,1.74,0,0,1,.13-.36,7.9,7.9,0,0,0,.44-1,.85.85,0,0,1,.21-.31A.29.29,0,0,1,17.57,103.74Z"/><path class="cls-23" d="M125.48,22.88c-.61.7-1.63.31-2.3.86a31,31,0,0,0-5.54,2.35,20,20,0,0,0-6,4.85c-1,1.31-2,2.65-3,4a5.52,5.52,0,0,1-.83,1c-.48.4-1.09.88-1.64.45s.15-.91.24-1.38a19.85,19.85,0,0,1,1.73-3.17c0,.35-.1.93.57.56a9.49,9.49,0,0,0,2.55-1.79,23.22,23.22,0,0,1,10-6.65A12.37,12.37,0,0,1,125.48,22.88Z"/><path class="cls-24" d="M242.61,54a5.85,5.85,0,0,1,1-2.2,12.11,12.11,0,0,0,1.61-5.1,27.19,27.19,0,0,0,.3-3.82.54.54,0,0,1,.39-.49c1.21,1.9,1,4,1,6.14A7.33,7.33,0,0,1,245.78,52c-.39-.27-.26-.78-.53-1.26-.55.92-1.08,1.71-1.59,2.51C243.41,53.57,243.24,54.1,242.61,54Z"/><path class="cls-25" d="M219.58,3.31V3.6c-1,.53-2.14.28-3.21.53-3.34.8-6.68,1.51-9.63,3.42-1.07.69-2.29,1.15-3.39,1.84a11,11,0,0,0-2.41,1.77,5,5,0,0,1-2,1.1,13,13,0,0,1,3.19-3.69c1-.91,2.05-1.69,3.1-2.51a1.79,1.79,0,0,1,.54-.16c0,1.24-1.16,1.48-2,2.37a40.91,40.91,0,0,1,10.41-4.51,2.74,2.74,0,0,1,.4-.15c.43-.09.86-.21,1.29-.32C217.1,3.43,218.35,2.49,219.58,3.31Z"/><path class="cls-26" d="M173.54,11.66c1.38-.08,2.78-.17,4.12-.16a27.4,27.4,0,0,1,4.69.27,34.48,34.48,0,0,1,4.6,1c.67.22,1.18-.12,1.76-.58a4.87,4.87,0,0,0-2.51-1.57,9.64,9.64,0,0,0-2.91-.67,1.36,1.36,0,0,1-1.12-.55,25,25,0,0,1,5.28,1.16,12.07,12.07,0,0,1,3,1.88c.48.36.18,1.09-.56,1.21a4.32,4.32,0,0,1-2.42-.07,27.29,27.29,0,0,0-5.8-1.48,17.72,17.72,0,0,0-5.44,0c-1.09.13-2.18.15-3.27.21a.18.18,0,0,1-.08-.2c0-.06.05-.1.08-.1.15-.16.42-.1.57-.28Z"/><path class="cls-27" d="M7.79,86.76c1.08.68,1.73,1.87,2.86,2.56.2-.42-.15-.55-.32-.71a6,6,0,0,1-1.5-2.36,9.8,9.8,0,0,0-1.17-2.36,31.5,31.5,0,0,1-1.58-3.32,1,1,0,0,1,0-.42C7,81.71,8,83.29,9,84.85c.64,1,1.31,2,2,3s1.1,2.22,2.1,3c.24.19.25.59.25,1.07a9,9,0,0,1-2.47-1.62c-.75-.81-1.56-1.56-2.33-2.34C8.2,87.6,7.78,87.32,7.79,86.76Z"/><path class="cls-28" d="M76.57,39.86a.87.87,0,0,0-.66.24,1.82,1.82,0,0,1-1.65.63,1.36,1.36,0,0,0-1,.23c-.63.41-.71-.08-.78-.53h0a2,2,0,0,0,.29-.29h0a4,4,0,0,0,.29-.29,3,3,0,0,1,1.15-1.14.38.38,0,0,0,.6.1c.35-.25.69-.49,1-.73A5.62,5.62,0,0,1,80.3,37v.29Z"/><path class="cls-29" d="M111.71,37.87c-.51,1.48-1,3-1.54,4.45a34.58,34.58,0,0,0-1.1,4.6c-.07.4,0,.85-.5,1.23l-1.43-2.29c.67-.54.76-1.39,1.06-2.11a49.13,49.13,0,0,1,3.15-5.68C111.41,38,111.59,37.93,111.71,37.87Z"/><path class="cls-30" d="M22.46,124.75l.59.91c-.44.1-.6-.28-.87-.34a2,2,0,0,1-.3-.28h0l-.29-.29h0a4,4,0,0,0-.29-.29h0a3.83,3.83,0,0,0-.29-.28h0a4,4,0,0,0-.29-.29h0a3.83,3.83,0,0,0-.28-.29.6.6,0,0,1-.3-.57A7.49,7.49,0,0,0,18.64,120a18.45,18.45,0,0,1-2.47-5.58c-.16-.49-.22-1-.4-1.51a4.34,4.34,0,0,1-.13-2.54,4.5,4.5,0,0,0,0-2.52,1,1,0,0,1,.21-1.19l.17.17a2.89,2.89,0,0,1,.25,1.11,21.87,21.87,0,0,0,1.6,9.08c1.23,2.46,2.85,4.7,4,7.19h0l.28.29h0C22.27,124.56,22.36,124.66,22.46,124.75Z"/><path class="cls-19" d="M214.4,3.89a2.16,2.16,0,0,1-1.25.6,29,29,0,0,0-7.64,3.21A24,24,0,0,1,203,8.93a3.07,3.07,0,0,1,1.3-1.54,4.91,4.91,0,0,0,1.52-1.49,13.53,13.53,0,0,1,4-2.31h.3c.1.76-.78.69-1,1.26A28.85,28.85,0,0,0,212.38,4C213,3.81,213.71,3.36,214.4,3.89Z"/><path class="cls-30" d="M15.84,106.62a6.49,6.49,0,0,1,.75-2.56c.55-1.2.69-2.53,1.34-3.7.4-.69-.25-.61-.65-.65.28-1,1.23-1.47,1.73-2.3.51-.32,1-.86,1.61-.17s.1,1.08-.29,1.61c-.62.83-1.07,1.78-1.68,2.63-.66.63-.82,1.56-1.37,2.26-.26.46-.34,1-.57,1.44h0c-.27.23,0,.63-.29.86h0c-.26.12,0,.74-.58.57Z"/><path class="cls-31" d="M242.61,54a18.35,18.35,0,0,0,2.07-3,7.32,7.32,0,0,1,.45-.72c.25-.26.55-.24.6.16s0,1,.05,1.57a7.19,7.19,0,0,1-1.73,2.59.89.89,0,0,1-.16.22c-.48.34-.58,1.46-1.4,1S242.56,54.57,242.61,54Z"/><path class="cls-32" d="M106.49,35a3.26,3.26,0,0,1-.22,1.18c1.1.14,1.61-.65,2.14-1.32a36.94,36.94,0,0,0,2.41-3.15,1.81,1.81,0,0,1,.85-.74,4.11,4.11,0,0,1-1,1.69c-1,1.36-1.91,2.71-2.86,4.06a1.19,1.19,0,0,0-.16.39c-.07.55-.17,1.1-.91,1a1.54,1.54,0,0,1-1-1.77A2.72,2.72,0,0,1,106.49,35Z"/><path class="cls-22" d="M18.43,101.44c.63-1,1.21-1.94,1.89-2.86.29-.4.43-.71.12-1.14s-.65-.25-1-.11a2,2,0,0,1-.42.08,7.12,7.12,0,0,1,2.3-1.85.68.68,0,0,1,.92.09.61.61,0,0,1,.11.79L18.43,102A.39.39,0,0,1,18.43,101.44Z"/><path class="cls-33" d="M230.49,85.92a1.78,1.78,0,0,1-.27-1.08c0-.41.15-.59.56-.65l6.05-.91A9.75,9.75,0,0,1,231.59,85C231,85.09,230.46,85.13,230.49,85.92Z"/><path class="cls-34" d="M162,16.26a1.34,1.34,0,0,1-.06.12c-.42.68-.42.68.35.75-1.2,1.12-2.4,2.26-3.62,3.36a.65.65,0,0,1-.86.16A12.92,12.92,0,0,1,160,17.91C160.61,17.31,161.05,16.44,162,16.26Z"/><path class="cls-35" d="M156.9,26.92a57.89,57.89,0,0,0-2.65,6.6c-.32.17-.4-.09-.51-.29-.07-.4-.36-.73-.31-1.16.5-.22.62-.72.82-1.14a26.14,26.14,0,0,1,2-3.47A1.11,1.11,0,0,1,156.9,26.92Z"/><path class="cls-19" d="M173,11.94v.3a4.12,4.12,0,0,1-1.55.59c-1.13.34-2.23.75-3.35,1.13-.09.11-.19.11-.29,0A13.14,13.14,0,0,1,173,11.94Z"/><path class="cls-24" d="M242.61,54a2.62,2.62,0,0,1-.23,1.1.42.42,0,0,0,.15.51.42.42,0,0,0,.61-.16,2.12,2.12,0,0,1,.91-.87,3,3,0,0,1-1.16,1.72,2.62,2.62,0,0,1-.28,0c-1.22-.07-1.37-.32-.78-1.3A10.73,10.73,0,0,1,242.61,54Z"/><path class="cls-34" d="M167.78,14h.29a8.34,8.34,0,0,1-2.87,1.44A5.09,5.09,0,0,1,167.78,14Z"/><path class="cls-5" d="M6.88,62.89a12.1,12.1,0,0,1-.23,3.75C6.69,65.39,6.39,64.12,6.88,62.89Z"/><path class="cls-36" d="M18.43,101.44V102h0c-.18.14-.11.42-.28.57l-.58,1.15h-.29C17.61,103,17.64,102,18.43,101.44Z"/><path class="cls-21" d="M124.91,20.29c-.63.75-1.5.54-2.3.58A3.19,3.19,0,0,1,124.91,20.29Z"/><path class="cls-37" d="M72.8,119l.59-.84a.19.19,0,0,1,.32,0,3.42,3.42,0,0,1-.58,1.47C73.07,119.36,73.08,119.09,72.8,119Z"/><path class="cls-34" d="M163.76,16.26a1.74,1.74,0,0,1,1.44-.86A1.82,1.82,0,0,1,163.76,16.26Z"/><path class="cls-34" d="M164.91,14a1.35,1.35,0,0,1-1.16.87A1.41,1.41,0,0,1,164.91,14Z"/><path class="cls-8" d="M17.57,41a1.32,1.32,0,0,1,1.16-.86A1.4,1.4,0,0,1,17.57,41Z"/><path class="cls-21" d="M126.64,20c-.41.48-1,.23-1.44.29C125.6,19.81,126.15,20.07,126.64,20Z"/><path class="cls-21" d="M120.59,21.44v.29a2,2,0,0,1-1.15.29A1.56,1.56,0,0,1,120.59,21.44Z"/><path class="cls-34" d="M163.75,14.82a.85.85,0,0,1-.85.58A.85.85,0,0,1,163.75,14.82Z"/><path class="cls-34" d="M162.32,17.13a.86.86,0,0,1,.86-.58A.89.89,0,0,1,162.32,17.13Z"/><path class="cls-21" d="M122.61,20.87c-.31.41-.76.25-1.15.28C121.76,20.73,122.21,20.9,122.61,20.87Z"/><path class="cls-21" d="M121.46,21.15c-.21.34-.55.28-.87.29C120.8,21.1,121.14,21.16,121.46,21.15Z"/><path class="cls-33" d="M236.82,83.28a.9.9,0,0,1,.88-.24C237.48,83.37,237.16,83.35,236.82,83.28Z"/><path class="cls-13" d="M83.76,33.24c-.21.34-.55.28-.87.28C83.1,33.19,83.44,33.24,83.76,33.24Z"/><path class="cls-23" d="M108.51,31.23a.59.59,0,0,1-.29.57A.56.56,0,0,1,108.51,31.23Z"/><path class="cls-22" d="M18.15,102.59a.57.57,0,0,1,.28-.57A.58.58,0,0,1,18.15,102.59Z"/><path class="cls-8" d="M19.3,39.86a.57.57,0,0,1,.56-.29A.58.58,0,0,1,19.3,39.86Z"/><path class="cls-34" d="M163.18,16.55a.59.59,0,0,1,.58-.29A.6.6,0,0,1,163.18,16.55Z"/><path class="cls-8" d="M18.72,40.15a.57.57,0,0,1,.58-.29A.62.62,0,0,1,18.72,40.15Z"/><path class="cls-29" d="M112,37.28a.6.6,0,0,1-.32.6A.48.48,0,0,1,112,37.28Z"/><path class="cls-18" d="M72.82,40.14l-.29.29Z"/><path class="cls-23" d="M108.79,30.93l-.28.3Z"/><path class="cls-34" d="M162.61,15.68l-.3.29Z"/><path class="cls-34" d="M162.89,15.4l-.29.28Z"/><path class="cls-9" d="M6.92,85.33l.29.28Z"/><path class="cls-2" d="M235.7,4.46l-.29-.29Z"/><path class="cls-28" d="M74.55,38.42l-.29.29Z"/><path class="cls-2" d="M235.41,4.17l-.29-.28Z"/><path class="cls-18" d="M73.11,39.85l-.29.29Z"/><path class="cls-36" d="M20.45,123.6l.28.29Z"/><path class="cls-36" d="M20.73,123.89l.29.29Z"/><path class="cls-36" d="M21,124.18l.29.28Z"/><path class="cls-36" d="M21.31,124.46l.29.29Z"/><path class="cls-36" d="M21.6,124.75l.29.29Z"/><path class="cls-36" d="M21.88,125l.3.28h-.29A2.62,2.62,0,0,0,21.88,125Z"/><path class="cls-34" d="M162.31,16l-.28.29Z"/><path class="cls-38" d="M40.39,37.52a23.87,23.87,0,0,1,8.43,1.4,12.19,12.19,0,0,1,7.44,7.33,19.8,19.8,0,0,1,1.41,9.85c-.56,4-3.69,5.93-7.55,4.64a42.38,42.38,0,0,0-5.55-1.47,16.91,16.91,0,0,0-9.18.78A5.34,5.34,0,0,0,34,60.8a3.48,3.48,0,0,0-1.49,3.88,7.91,7.91,0,0,0,2,3.75,15,15,0,0,0,8.91,4.24c3,.48,6,.29,9,.53a28.27,28.27,0,0,1,7.87,1.51A11.6,11.6,0,0,1,64,76.92a26.82,26.82,0,0,1,8.51,15A32.11,32.11,0,0,1,71,110.28a21.8,21.8,0,0,1-8.32,10.58c-8.29,5.53-17.23,6.38-26.28,2.42-7.19-3.15-11.43-9-12.45-16.92a7.92,7.92,0,0,1,.07-2.57,4.16,4.16,0,0,1,4.86-3.63,20.14,20.14,0,0,1,4.06.88,38.17,38.17,0,0,0,12.2,1.65,8.46,8.46,0,0,0,2.82-.46,2.87,2.87,0,0,0,1.64-4.09,8.88,8.88,0,0,0-3.24-3.58,18.41,18.41,0,0,0-4.43-2c-4.38-1.56-8.6-3.51-12.85-5.36-1.19-.51-2.37-1-3.55-1.56a32.57,32.57,0,0,1-9.15-5.89A16.41,16.41,0,0,1,11.12,64c.32-1.8.74-3.57,1.16-5.34a22.74,22.74,0,0,1,5.09-9.39A33.49,33.49,0,0,1,35.65,38a16,16,0,0,1,2.27-.36C38.83,37.57,39.74,37.56,40.39,37.52Z"/><path class="cls-38" d="M75,130.52a30.17,30.17,0,0,1,4.55-16.42,21.77,21.77,0,0,1,4-4.89c4.54-4.16,9.64-7.29,15.85-8.16,5.45-.75,10.73-.25,15.47,2.89a10.45,10.45,0,0,1,4.46,6.48,13.54,13.54,0,0,1-1.26,10.3,8.48,8.48,0,0,1-2.06,2.55,3.2,3.2,0,0,1-4,0,10,10,0,0,1-1.55-1.5c-.57-.65-1.14-1.29-1.76-1.9a4.34,4.34,0,0,0-5.29-.82,8.55,8.55,0,0,0-3.37,2.61c-3.41,4.6-4.43,12.22-.4,17.95a10.57,10.57,0,0,0,13,3.58,31,31,0,0,0,7.19-4.7,9.19,9.19,0,0,1,4.36-2.36,5.26,5.26,0,0,1,3.47.58,9.16,9.16,0,0,1,3.85,12,16.77,16.77,0,0,1-3,4,33.88,33.88,0,0,1-18,9.89A28.78,28.78,0,0,1,91.71,160a32,32,0,0,1-7.77-5.38,23.38,23.38,0,0,1-6.72-10.7A44.87,44.87,0,0,1,75,130.52Z"/><path class="cls-38" d="M77.73,53,79,50.26a20,20,0,0,1,8.17-8.85,12,12,0,0,1,11.68-.75A11.75,11.75,0,0,1,103.12,44a36.45,36.45,0,0,1,4.78,8,60.09,60.09,0,0,1,4.6,16.26c.37,2.66,1.13,5.24,1.34,7.93a32,32,0,0,1-.17,7.88,11.24,11.24,0,0,1-2.18,5.11,7.64,7.64,0,0,1-7.47,3,4.83,4.83,0,0,1-3.62-2.79A14.44,14.44,0,0,1,99,84.62c-.6-4.12-1.13-8.26-1.75-12.38a62.88,62.88,0,0,0-1.75-9,8.41,8.41,0,0,0-1.94-3.64,2.27,2.27,0,0,0-3-.59A5,5,0,0,0,88,61.57a12.15,12.15,0,0,0-.65,6.92A79.79,79.79,0,0,0,90.2,79.76c.72,2.44,1.7,4.78,2.61,7.15.44,1.12.8,2.26,1.13,3.41,1,3.28-.13,5.87-2.74,7.85a10.72,10.72,0,0,1-7.87,2,6.22,6.22,0,0,1-1.52-.41,4,4,0,0,1-2.68-2.89,105.78,105.78,0,0,0-6.65-18.8c-2.42-5.14-5.34-10-9.65-13.82-2.35-2.09-2.69-4.65-1.61-7.46A13,13,0,0,1,68.56,49a5.21,5.21,0,0,1,5.17.61A38.28,38.28,0,0,1,77.73,53Z"/><path class="cls-38" d="M113.4,53.11A37.14,37.14,0,0,1,116,40.24a24,24,0,0,1,5.75-8.69,13.29,13.29,0,0,1,12.37-3.33l.56.14c1.26.32,1.28.33,2-.79a8.57,8.57,0,0,1,5.74-3.74,5.42,5.42,0,0,1,6.06,2.57,16.08,16.08,0,0,1,2,5.5c.67,2.84,1.22,5.71,1.94,8.55A53.11,53.11,0,0,0,161,58.66a14.58,14.58,0,0,1,2,3.47,5.24,5.24,0,0,1-1.35,5.92A10.06,10.06,0,0,1,155,71a17,17,0,0,1-8.66-1.61c-1.12-.53-.93-.59-1.67.48a21.75,21.75,0,0,1-9.09,7.71c-5.32,2.4-10.2,1.46-14.62-2.14-3.48-2.84-5.28-6.75-6.39-11A43.12,43.12,0,0,1,113.4,53.11Z"/><path class="cls-38" d="M136.1,107.66a61.48,61.48,0,0,1,4.47-5.34A26.92,26.92,0,0,1,145,98.59a9.24,9.24,0,0,1,11.64.94,15.65,15.65,0,0,1,4.3,6.54,101.83,101.83,0,0,1,5.06,20,20.47,20.47,0,0,1-.47,8.56,10.1,10.1,0,0,1-4.23,5.79,6,6,0,0,1-2,.85,3.21,3.21,0,0,1-4.13-2.32,35.82,35.82,0,0,1-1.46-7.75,77.35,77.35,0,0,0-1.44-10.38,20.32,20.32,0,0,0-1.7-4.72,8.39,8.39,0,0,0-1.69-2.31c-1.79-1.65-3.77-1.06-4.3,1.31a15.23,15.23,0,0,0-.21,4.86,47.47,47.47,0,0,0,1.73,7.55c.89,3.28,1.91,6.53,2.57,9.87a11.54,11.54,0,0,1,.19,4.42,4.28,4.28,0,0,1-1.87,3,12.38,12.38,0,0,1-4.88,2,5.44,5.44,0,0,1-2.83-.3,3.11,3.11,0,0,1-2.23-2.38c-.19-1-.53-2-.71-3.08-.57-3.24-2.06-6.16-3.18-9.22a194.74,194.74,0,0,0-14-29.44A44,44,0,0,1,117,98.13a9.55,9.55,0,0,1,2.59-10.86,3,3,0,0,1,3.45-.54,6.73,6.73,0,0,1,3,2.62c2,3,3.75,6.14,5.49,9.28,1.47,2.64,2.84,5.33,4.08,8.08C135.72,107,135.86,107.2,136.1,107.66Z"/><path class="cls-38" d="M157.55,41.54c.07-5.58.61-9.48,2.32-13.09a22.69,22.69,0,0,1,16.37-13.19,20.5,20.5,0,0,1,11.59,1,13.08,13.08,0,0,1,5.4,3.95A8.3,8.3,0,0,1,195,25.15a10.92,10.92,0,0,1-1.84,7.23,6,6,0,0,1-3.59,2.45,1.82,1.82,0,0,1-1.74-.33,6.07,6.07,0,0,1-1.31-1.32c-.33-.47-.64-1-1-1.42a5.55,5.55,0,0,0-8.61-.61c-3.25,3.58-4.48,7.8-2.78,12.5a7.82,7.82,0,0,0,7.27,5.6,7.91,7.91,0,0,0,2.69-.36,31.64,31.64,0,0,0,4.71-1.73,12.7,12.7,0,0,1,3-1.09c2.37-.46,4.59-.14,6.1,1.87a6,6,0,0,1,.48,6.78,11,11,0,0,1-3.7,4,28.15,28.15,0,0,1-11.86,4.48,26.23,26.23,0,0,1-9.43-.28A14.45,14.45,0,0,1,168,60.52,24.39,24.39,0,0,1,157.55,41.54Z"/><path class="cls-38" d="M223.22,55.66a33.57,33.57,0,0,1-13.09-2.93c-4.61-2-7.43-5.72-9.23-10.31a26.11,26.11,0,0,1-1.51-11.72,24.39,24.39,0,0,1,3-10.54A21.77,21.77,0,0,1,214.78,9.82a34.65,34.65,0,0,1,6.66-1.71,16.26,16.26,0,0,1,7.07.83,26.06,26.06,0,0,1,3.92,1.78,8.23,8.23,0,0,1,4.7,8.88,12.16,12.16,0,0,1-3,7,3.93,3.93,0,0,1-6.55-.52c-.51-.82-1-1.63-1.56-2.42-.95-1.38-2.25-1.89-4.32-1.15a6.92,6.92,0,0,0-3.63,2.93,14.29,14.29,0,0,0-1.8,11.32c1,3.77,3.06,5.57,7.5,6.24a7.51,7.51,0,0,0,5.71-1.4c.85-.62,1.73-1.2,2.59-1.81a4.28,4.28,0,0,1,3.51-.83,13.93,13.93,0,0,1,2.22.58,5.57,5.57,0,0,1,3.5,7.2,8.33,8.33,0,0,1-3.36,4.36,24.07,24.07,0,0,1-9.29,4A26.65,26.65,0,0,1,223.22,55.66Z"/><path class="cls-38" d="M224.13,70.2a38.79,38.79,0,0,1,6.39-2A57.58,57.58,0,0,1,237.3,67c2.79-.28,4.38.74,5.19,3.4a10.17,10.17,0,0,1,.19,5.81,6.29,6.29,0,0,1-4.09,4.47,26.89,26.89,0,0,1-5.47,1.15c-1.65.24-3.31.45-5.05.69a53.47,53.47,0,0,0,.88,5.92,135.86,135.86,0,0,1,2.17,19,29.64,29.64,0,0,1-.58,7.28,2.46,2.46,0,0,1-.8,1.48,14.3,14.3,0,0,1-8.51,3.4,3.58,3.58,0,0,1-2.29-.7,2.21,2.21,0,0,1-1-2.1,35.34,35.34,0,0,0-.36-10c-.72-5.17-1.5-10.33-2.59-15.44-.3-1.4-.73-2.78-1.13-4.16-.27-.93-.3-.92-1.28-.58a60.28,60.28,0,0,1-7.7,2.29,8.82,8.82,0,0,1-3.55.22,4.09,4.09,0,0,1-3.19-2.39,29.13,29.13,0,0,1-1.68-4.27,2.33,2.33,0,0,1,.89-2.66,9.63,9.63,0,0,1,2.52-1.37c2.71-1.06,5.46-2.06,8.15-3.17,3.29-1.36,3-1.07,2.41-4.51-.25-1.36-.71-2.68-1-4-.17-.69-.33-1.39-.45-2.1a3.56,3.56,0,0,1,1.27-3.46A13.21,13.21,0,0,1,217.13,58a2.17,2.17,0,0,1,2.33,1,15.05,15.05,0,0,1,1,1.74,58.11,58.11,0,0,1,3.14,8.17A3.79,3.79,0,0,0,224.13,70.2Z"/><path class="cls-38" d="M164.08,106.59a23.71,23.71,0,0,1,3.46-12.16,14.57,14.57,0,0,1,9.89-6.78,4.93,4.93,0,0,1,1.12-.22c2.08.14,3.58-.89,5.09-2.16a6.7,6.7,0,0,1,5.93-1.46,4.23,4.23,0,0,1,3.26,2.72A24.29,24.29,0,0,1,194,91.12a66.57,66.57,0,0,0,4,14.06,34.57,34.57,0,0,0,5.11,8.46,28,28,0,0,1,2,2.65,2.93,2.93,0,0,1,0,3.25,9.11,9.11,0,0,1-12.61,3.29c-.69-.38-1.31-1.34-2-1.09s-.9,1.17-1.36,1.78a15.08,15.08,0,0,1-11.32,6.28,9.62,9.62,0,0,1-8.08-3,13,13,0,0,1-2.89-4.59A54.13,54.13,0,0,1,164.08,106.59Z"/><path class="cls-5" d="M130.4,85.29A21,21,0,0,0,141.51,83a14.64,14.64,0,0,0,6.78-7.17c.45-1,.45-1,1.55-.6a14.22,14.22,0,0,0,11.31-.4,10.66,10.66,0,0,0,6.1-7.21.66.66,0,0,1,.32-.48c.29-.06.52.13.77.26,4.54,2.37,9.36,2.77,14.39,2.22a32.26,32.26,0,0,0,15.11-5.81,23.14,23.14,0,0,0,4.84-4.48c.24-.3.5-.58.74-.88a.57.57,0,0,1,.86-.16.63.63,0,0,1,.34.92,11.48,11.48,0,0,0-.36,6.23c.27,1.65.4,3.32.61,5a1.22,1.22,0,0,1-.61,1.34c-.54.32-1.06.66-1.62.94-1.89.92-3.77,1.87-5.7,2.72a9.31,9.31,0,0,0-5,4.49c-.26.55-.58.59-1.14.43a12.14,12.14,0,0,0-12.23,3,2.26,2.26,0,0,1-1.59.86,13.63,13.63,0,0,0-8.2,3.06,22.34,22.34,0,0,0-7.48,9.47l-.47,1.17c-.34.06-.47-.15-.63-.32-3.66-3.9-8.1-4.83-13.13-3.41A21.71,21.71,0,0,0,139,98.43l-.76.64c-2.39-4.88-4.94-9.58-8.75-13.44C129.57,85,130,85.22,130.4,85.29Z"/><path class="cls-5" d="M130.56,133.36c-3.15-1.94-6-1.31-8.76.46a70.7,70.7,0,0,0-5.83,4.65,24.93,24.93,0,0,1-4.07,2.69c-3.16,1.64-6.07,1-8.67-1.14a10.91,10.91,0,0,1-4-8,14.47,14.47,0,0,1,.35-5,7.84,7.84,0,0,1,2.58-4c1.3-1.06,1.78-1,2.92.21a12.9,12.9,0,0,1,1.38,1.83c.5.76,1,1.52,1.51,2.27,2.1,3.09,5.41,3.61,8.51,2.26a14.12,14.12,0,0,0,7.82-8.72c.17-.48.31-1,.49-1.49C126,120.62,130,130.37,130.56,133.36Z"/><path class="cls-5" d="M194.32,37.91c.26,1.8.7,3.45,1.09,5.12.11.45-.17.61-.58.5-2.42-.64-4.52.29-6.59,1.35a18.55,18.55,0,0,1-4.76,2c-2.7.56-4.55-.34-5.41-3a11.25,11.25,0,0,1,.78-9A3,3,0,0,1,180,33.59a1.9,1.9,0,0,1,2.6.3,17.57,17.57,0,0,1,1.56,1.87,14.67,14.67,0,0,0,1.48,1.76,6.13,6.13,0,0,0,7.28,1.15C193.34,38.47,193.75,38.22,194.32,37.91Z"/><path class="cls-5" d="M64.93,72.65a37.65,37.65,0,0,0-5.74-2.1,47.21,47.21,0,0,0-8.34-1.34,44.71,44.71,0,0,1-8.23-1.16,11.08,11.08,0,0,1-4.26-2,4.78,4.78,0,0,1-.8-.82c-.52-.68-.35-1.25.44-1.58a3.42,3.42,0,0,1,1.71-.12,42.76,42.76,0,0,1,6.91,1.23,18.7,18.7,0,0,0,5.81.79,6.92,6.92,0,0,0,3.77-1.21.81.81,0,0,1,1.13,0,31.73,31.73,0,0,1,7.42,7.74A3.34,3.34,0,0,1,64.93,72.65Z"/><path class="cls-5" d="M96.17,89.32,90.26,71.91A27.45,27.45,0,0,1,89,66.31a10.08,10.08,0,0,1,.25-3.42c.38-1.65,1.62-2,2.87-.82a6.83,6.83,0,0,1,1.67,2.65,37.29,37.29,0,0,1,2,9.39c.29,2.62.3,5.26.36,7.89,0,2.35.17,4.69.27,7C96.56,89.33,96.43,89.4,96.17,89.32Z"/><path class="cls-39" d="M97.27,92.55c.88,2.94,3,4.62,5.8,5.68a67.06,67.06,0,0,0-7.21,1.22A12.2,12.2,0,0,0,97,93.1C96.83,92.78,96.75,92.5,97.27,92.55Z"/><path class="cls-29" d="M116.87,85.38a41.21,41.21,0,0,0,.54-6.16,55.91,55.91,0,0,0,4.85,3.55A14.86,14.86,0,0,0,116.87,85.38Z"/><path class="cls-40" d="M107.08,98.3a11.32,11.32,0,0,0,4.23-2.24l2.06,3.94a40.67,40.67,0,0,0-6.3-1.46c-.1-.06-.13-.11-.09-.16A.14.14,0,0,1,107.08,98.3Z"/><path class="cls-41" d="M97.27,92.55c-.25.1-.22.36-.3.55-.48-.81-.15-1.78-.53-2.61.1-.12.2-.12.28,0C97.16,91.12,97,91.88,97.27,92.55Z"/><path class="cls-42" d="M96.72,90.51l-.28,0c0-.41-.34-.74-.27-1.17l.29-.28C96.84,89.48,96.67,90,96.72,90.51Z"/><path class="cls-43" d="M130.4,85.29c-.31.12-.72,0-.93.34a.43.43,0,0,1-.34-.4c0-.19.19-.18.33-.18A1.27,1.27,0,0,1,130.4,85.29Z"/><path class="cls-44" d="M153.74,33.23l.51.29c0,.18,0,.45-.2.4S153.7,33.52,153.74,33.23Z"/><path class="cls-45" d="M107.08,98.3c0,.08,0,.16,0,.24a.65.65,0,0,1-.64-.12A.76.76,0,0,1,107.08,98.3Z"/><path class="cls-46" d="M73.71,118.13h-.32c.07-.21.2-.47.42-.38S73.87,118,73.71,118.13Z"/><path class="cls-47" d="M232.25,3.31a7.79,7.79,0,0,1,3.87,2.28,28.54,28.54,0,0,0,2.13,2.13,10.51,10.51,0,0,1,2.92,4.14,3.93,3.93,0,0,0,.57.81,10.88,10.88,0,0,1,2,6.1,20.24,20.24,0,0,1-1.17,7c-.19.14-.12.42-.29.57v.29c-.18.15-.12.42-.29.58s-.12.41-.29.57h0c-.17.15-.12.42-.28.58s-.42.57-.81.31-.13-.5,0-.77A35.94,35.94,0,0,0,242,20.77c.44-3.51-.83-6.48-2.82-9.32-1.34-1.91-3.14-3.31-4.63-5,.7-.43.7-.43,1.52.14a13,13,0,0,0-3.32-2.32A.7.7,0,0,1,232.25,3.31Z"/><path class="cls-14" d="M234.55,6.19c1.07,1,2.18,2,3.2,3.08a19.62,19.62,0,0,1,3.4,4.88,12.31,12.31,0,0,1,.78,8.37c-.41,1.86-.66,3.74-1.18,5.59-.21.78.42.26.71.24a2.06,2.06,0,0,1-.17.53c-.26.35-.57.78-1,.48s-.21-.67-.06-1a23.22,23.22,0,0,0,1.33-5.95,14.68,14.68,0,0,0-.08-5.53c-.4-1.56-.78-3.16-2.1-4.29a6.81,6.81,0,0,1-1.15-1.8,10.92,10.92,0,0,0-1.74-2,23.89,23.89,0,0,0-3.55-2.82,14.12,14.12,0,0,0-3.2-1.47c-1.15-.44-2.44-.4-3.49-1.12a1,1,0,0,1,1-.25,6.82,6.82,0,0,0,1,.2,3.5,3.5,0,0,1,.56.13c.23.08.45.2.68.29a2.55,2.55,0,0,0,1,.19,1.47,1.47,0,0,1,.36,0,1.5,1.5,0,0,1,.34.11c.26.15.5.33.77.47l.32.18a6.14,6.14,0,0,0,1,.41,2.21,2.21,0,0,1,.34.18,8.93,8.93,0,0,1,.87.76Z"/><path class="cls-19" d="M227.35,3.31H226.2A16.19,16.19,0,0,1,223.53,3a24.85,24.85,0,0,0-3.95.31c-1.35-.1-2.66.48-4,.29l-.09-.17a.45.45,0,0,1,.22-.3,2.26,2.26,0,0,1,.37-.11,5,5,0,0,0,1.32-.25,2.83,2.83,0,0,1,.4-.08,8.4,8.4,0,0,0,2.12-.22,3.26,3.26,0,0,1,.45-.09c.7,0,1.4,0,2.11,0h1.86a5.06,5.06,0,0,1,1.1.1,5.55,5.55,0,0,0,1.2.24,1.89,1.89,0,0,1,.58.14.46.46,0,0,1,.23.3Z"/><path class="cls-14" d="M242.32,26.33a.57.57,0,0,1,.29-.57A.6.6,0,0,1,242.32,26.33Z"/><path class="cls-14" d="M242,27.2a.61.61,0,0,1,.29-.58A.62.62,0,0,1,242,27.2Z"/><path class="cls-14" d="M241.74,27.77a.59.59,0,0,1,.29-.57A.6.6,0,0,1,241.74,27.77Z"/><path class="cls-14" d="M241.46,28.35a.59.59,0,0,1,.28-.58A.59.59,0,0,1,241.46,28.35Z"/><path class="cls-28" d="M86.06,34.68a4.5,4.5,0,0,1,2.3-.58h2.57c.33,0,.76,0,.79-.4s-.4-.44-.73-.46-.86,0-1.29,0a.84.84,0,0,1-.76-.29,12.15,12.15,0,0,1,4.21.14,17.6,17.6,0,0,1,5.46,1.57,10.68,10.68,0,0,1,1.78,1.16c.18.12.28.27.19.47a.5.5,0,0,1-.58.3c-.42-.08-.85-.12-1.26-.23-2.66-.74-5.41-1-8.1-1.59a17,17,0,0,0-3.72-.09A.71.71,0,0,1,86.06,34.68Z"/><path class="cls-28" d="M86.06,34.68h.86c-.4.48-1,.22-1.44.29-.09-.07-.12-.13-.09-.2s.06-.09.09-.09Z"/><path class="cls-28" d="M85.48,34.68V35H85.2a.48.48,0,0,1-.46.11L84.62,35C84.83,34.63,85.17,34.69,85.48,34.68Z"/><path class="cls-28" d="M81.74,36.12a.6.6,0,0,1,.58-.29.19.19,0,0,1,.06.19c0,.06,0,.1-.06.1H82l-.14.12Z"/><path class="cls-28" d="M84,35.25a.59.59,0,0,1,.58-.28h0c.09.06.13.12.09.19s-.06.09-.09.09Z"/><path class="cls-28" d="M84.62,35.25V35h.58A.59.59,0,0,1,84.62,35.25Z"/><path class="cls-28" d="M83.47,35.25H84a.57.57,0,0,1-.57.29.18.18,0,0,1-.07-.19C83.43,35.29,83.45,35.25,83.47,35.25Z"/><path class="cls-28" d="M81.17,36.4a.57.57,0,0,1,.57-.28h0a.17.17,0,0,1,.07.19c0,.06,0,.09-.07.09Z"/><path class="cls-28" d="M80.59,36.69a.62.62,0,0,1,.58-.29A.58.58,0,0,1,80.59,36.69Z"/><path class="cls-28" d="M80.3,37l.29-.29Z"/><path class="cls-28" d="M82.61,35.83l.28-.29a.18.18,0,0,1,.07.19c0,.07,0,.1-.07.1Z"/><path class="cls-28" d="M83.47,35.25v.29h-.29Z"/><path class="cls-28" d="M82.32,36.12v-.29h.29Z"/><path class="cls-28" d="M81.74,36.4v-.28H82Z"/><path class="cls-28" d="M82.89,35.83v-.29h.29Z"/><path class="cls-48" d="M215.84,3.31h-.28a1.28,1.28,0,0,1-.73.35,1.19,1.19,0,0,0-.43.23h0c-1.67.14-3.18.94-4.81,1.27-.47.1-1.1.4-1.3,0-.28-.6.5-.64.86-.89s.71-.28.94-.62C212,3,214,2.35,215.91,1.69a6.22,6.22,0,0,1,2.52-.39,23.94,23.94,0,0,1,6.76.16c1.2.24,2.42.38,3.6.71.63.17,1.41.37.66,1.29a.93.93,0,0,1-.47,0c-.75-.1-1.39-.59-2.16-.62a2.15,2.15,0,0,1-.67-.06,3.61,3.61,0,0,0-1.78-.22h-1.88a7.31,7.31,0,0,0-2.33.15h-.29c-.73.38-1.57-.11-2.3.28h-.29C216.85,3.36,216.27,3,215.84,3.31Z"/><path class="cls-28" d="M229.08,3.31c.83-.2.54-.57.06-.78a12.52,12.52,0,0,0-2.91-.65c-.23,0-.5.05-.71,0-2.31-.92-4.72-.41-7.09-.54.33-.41.78-.26,1.2-.29a27.71,27.71,0,0,1,7.05.34,15.79,15.79,0,0,1,5.57,2,1.9,1.9,0,0,0,1.19.93,7,7,0,0,1,3.2,2.92c-.82-.11-1.14-1.19-2.09-1-.4-.27-.74-.61-1.15-.86h0C233,5,232.41,5,232,4.75c-.27-.22-.59-.36-.87-.57h-.28a.55.55,0,0,0-.44-.14c-.21,0-.43,0-.65,0s-.28-.18-.43-.25a.58.58,0,0,1-.29-.17A.19.19,0,0,1,229.08,3.31Z"/><path class="cls-19" d="M173.54,11.66a.58.58,0,0,1-.57.28A.57.57,0,0,1,173.54,11.66Z"/><path class="cls-36" d="M21.89,124.17c-.75-.37-.89-1.21-1.3-1.82-.86-1.29-1.58-2.67-2.35-4a2.24,2.24,0,0,1-.38-1.35,23.51,23.51,0,0,1,2.84,4.18C21.16,122.12,21.9,123,21.89,124.17Z"/><path class="cls-36" d="M15.84,106.62l.58-.57a27.48,27.48,0,0,0,.55,7.23,8.11,8.11,0,0,0,.42,1.35,4.75,4.75,0,0,1,.47,2.35,13.21,13.21,0,0,1-1.72-6.52A15,15,0,0,0,15.84,106.62Z"/><path class="cls-36" d="M16.71,105.18a1.66,1.66,0,0,1,.57-1.44A1.66,1.66,0,0,1,16.71,105.18Z"/><path class="cls-36" d="M16.42,106c0-.31-.05-.65.29-.86C16.7,105.5,16.76,105.84,16.42,106Z"/><path class="cls-36" d="M22.46,124.75l-.29-.29Z"/><path class="cls-36" d="M22.17,124.46l-.28-.29Z"/><path class="cls-19" d="M214.4,3.89l.29-.29a.69.69,0,0,1,.86,0h0C215.25,4,214.8,3.85,214.4,3.89Z"/><path class="cls-49" d="M141,54.74a8.66,8.66,0,0,1-.55,3.24,4.25,4.25,0,0,1-2.32,2.42,2.75,2.75,0,0,1-3.68-.91,9.43,9.43,0,0,1-2-5.27,22.11,22.11,0,0,1,1.75-10.37,3.52,3.52,0,0,1,1.76-2,1.79,1.79,0,0,1,2.59,1A56.37,56.37,0,0,1,141,54.74Z"/><path class="cls-4" d="M179.16,106.57a19.52,19.52,0,0,1,1-5.92,6.56,6.56,0,0,1,1.45-2.45.87.87,0,0,1,1.37,0,5.72,5.72,0,0,1,1.53,2.39,45.57,45.57,0,0,1,1.74,7.09,12,12,0,0,1,.23,5.12c0,.19-.07.38-.12.56-.67,2.51-2.8,3.07-4.65,1.23a8.9,8.9,0,0,1-2.39-5.42C179.23,108.29,179.22,107.43,179.16,106.57Z"/><path class="cls-47" d="M232,4.75c.55,0,1.15-.1,1.44.58A1.67,1.67,0,0,1,232,4.75Z"/><path class="cls-47" d="M233.4,5.33a1.37,1.37,0,0,1,1.15.86A1.35,1.35,0,0,1,233.4,5.33Z"/><path class="cls-19" d="M229.66,3.89h.86a.17.17,0,0,1,.06.19q0,.09-.06.09c-.4,0-.85.14-1.15-.28l.14-.12Z"/><path class="cls-47" d="M231.09,4.18a.86.86,0,0,1,.87.57A.88.88,0,0,1,231.09,4.18Z"/><path class="cls-47" d="M229.08,3.31V3.6a.17.17,0,0,1-.29,0h-.57a.23.23,0,0,1-.07-.24c0-.08,0-.12.07-.12a.52.52,0,0,1,.57.07Z"/><path class="cls-19" d="M228.22,3.31V3.6c-.32,0-.66,0-.87-.29h0a.79.79,0,0,1,.33-.19A.76.76,0,0,1,228.22,3.31Z"/><path class="cls-19" d="M228.79,3.6h.58a.19.19,0,0,1,.06.19c0,.06,0,.1-.06.1h0A.62.62,0,0,1,228.79,3.6Z"/><path class="cls-47" d="M230.52,4.17V3.89l.29.28Z"/><path class="cls-28" d="M217.57,3c.71-.57,1.54-.16,2.3-.28C219.16,3.31,218.33,2.9,217.57,3Z"/><path class="cls-28" d="M220.16,2.74c.71-.58,1.54-.17,2.3-.29.1.06.13.13.1.19s-.07.09-.1.09Z"/><path class="cls-28" d="M228.22,3.31h-.58a1.59,1.59,0,0,1-.29-.29h-.57c-.1-.06-.13-.12-.1-.19s.07-.09.1-.09a2.84,2.84,0,0,1,2,.57Z"/><path class="cls-47" d="M222.46,2.73V2.45h2c.09.06.12.12.09.19s-.06.09-.09.09Z"/><path class="cls-28" d="M224.48,2.73V2.45c.57.09,1.22-.23,1.72.29a.4.4,0,0,1-.57,0Z"/><path class="cls-28" d="M215.84,3.31c.41-.48,1-.22,1.44-.29C216.88,3.5,216.33,3.24,215.84,3.31Z"/><path class="cls-47" d="M225.63,2.74h1.15V3C226.38,3,225.93,3.16,225.63,2.74Z"/><path class="cls-28" d="M215.55,3.6h-.86c.21-.34.55-.28.87-.29C215.56,3.41,215.55,3.5,215.55,3.6Z"/><path class="cls-47" d="M227.35,3l.29.29h-.29Z"/><path class="cls-47" d="M229.37,3.89V3.6l.29.29Z"/><path class="cls-10" d="M134.62,51a20.07,20.07,0,0,1,.73-4.82,2.47,2.47,0,0,1,.19-.54c.24-.52.42-1.24,1.05-1.24s.63.76.79,1.23A29.9,29.9,0,0,1,139,55a4.22,4.22,0,0,1-.73,2.58c-.49.68-.83.71-1.58.28a2.76,2.76,0,0,1-1.18-1.56,14.2,14.2,0,0,1-.68-2.79C134.72,52.7,134.69,51.84,134.62,51Z"/><path class="cls-29" d="M182.32,102.37c.55.28.53.72.62,1a41,41,0,0,1,1.44,6.57,3.9,3.9,0,0,1-.44,2.76c-.38.56-.72.57-1.1,0a7.18,7.18,0,0,1-1.19-3.63A18.82,18.82,0,0,1,182.32,102.37Z"/></g></g></svg>